<svg id="visual" viewBox="0 0 960 540" width="960" height="540" xmlns="http://www.w3.org/2000/svg" xmlns:xlink="http://www.w3.org/1999/xlink" version="1.1"><path d="M0 226L31 226L31 219L62 219L62 281L93 281L93 222L124 222L124 246L155 246L155 257L186 257L186 240L217 240L217 220L248 220L248 310L279 310L279 244L310 244L310 280L341 280L341 246L372 246L372 224L403 224L403 217L434 217L434 227L465 227L465 237L495 237L495 313L526 313L526 243L557 243L557 294L588 294L588 304L619 304L619 271L650 271L650 322L681 322L681 315L712 315L712 218L743 218L743 241L774 241L774 302L805 302L805 300L836 300L836 271L867 271L867 313L898 313L898 272L929 272L929 290L960 290L960 251L960 0L960 0L929 0L929 0L898 0L898 0L867 0L867 0L836 0L836 0L805 0L805 0L774 0L774 0L743 0L743 0L712 0L712 0L681 0L681 0L650 0L650 0L619 0L619 0L588 0L588 0L557 0L557 0L526 0L526 0L495 0L495 0L465 0L465 0L434 0L434 0L403 0L403 0L372 0L372 0L341 0L341 0L310 0L310 0L279 0L279 0L248 0L248 0L217 0L217 0L186 0L186 0L155 0L155 0L124 0L124 0L93 0L93 0L62 0L62 0L31 0L31 0L0 0Z" fill="#ececec" stroke-linecap="square" stroke-linejoin="miter"></path></svg>