<svg id="visual" viewBox="0 0 960 540" width="960" height="540" xmlns="http://www.w3.org/2000/svg" xmlns:xlink="http://www.w3.org/1999/xlink" version="1.1"><path d="M0 290L31 290L31 278L62 278L62 303L93 303L93 248L124 248L124 305L155 305L155 238L186 238L186 249L217 249L217 298L248 298L248 265L279 265L279 250L310 250L310 226L341 226L341 275L372 275L372 314L403 314L403 271L434 271L434 292L465 292L465 295L495 295L495 225L526 225L526 241L557 241L557 290L588 290L588 268L619 268L619 230L650 230L650 234L681 234L681 267L712 267L712 316L743 316L743 302L774 302L774 262L805 262L805 268L836 268L836 291L867 291L867 238L898 238L898 234L929 234L929 283L960 283L960 317L960 541L960 541L929 541L929 541L898 541L898 541L867 541L867 541L836 541L836 541L805 541L805 541L774 541L774 541L743 541L743 541L712 541L712 541L681 541L681 541L650 541L650 541L619 541L619 541L588 541L588 541L557 541L557 541L526 541L526 541L495 541L495 541L465 541L465 541L434 541L434 541L403 541L403 541L372 541L372 541L341 541L341 541L310 541L310 541L279 541L279 541L248 541L248 541L217 541L217 541L186 541L186 541L155 541L155 541L124 541L124 541L93 541L93 541L62 541L62 541L31 541L31 541L0 541Z" fill="#18181b" stroke-linecap="square" stroke-linejoin="miter"></path></svg>